<svg width="135" height="48" viewBox="0 0 135 48" fill="none" xmlns="http://www.w3.org/2000/svg">
<path opacity="0.2" d="M24.2464 47.5986C10.8555 47.5986 0.000106096 37.0773 0.000106096 24.0986C0.000106096 11.1199 10.8555 0.598633 24.2464 0.598633C37.6372 0.598633 48.4927 11.1199 48.4927 24.0986C48.4927 37.0773 37.6372 47.5986 24.2464 47.5986Z" fill="white"/>
<path fill-rule="evenodd" clip-rule="evenodd" d="M34.3011 11.9835C33.3484 11.2379 31.7009 11.3363 30.9165 12.2453C29.5743 13.7931 28.2628 15.3629 26.9327 16.9185C25.2317 18.9291 23.502 20.9206 21.8211 22.9444C24.744 26.3053 27.6268 29.6931 30.533 33.0655C30.9793 33.5599 31.3601 34.117 31.9354 34.5041C32.4779 34.8691 33.2087 34.9836 33.8655 34.8482C34.4982 34.7087 35.0514 34.2918 35.2879 33.746C35.4442 33.4275 35.4415 33.0738 35.4148 32.7338C35.3333 32.2453 35.04 31.8093 34.7039 31.4264C32.1679 28.6231 29.6418 25.8127 27.103 23.0106C27.695 22.3151 28.331 21.6471 28.9396 20.9624C30.682 19.0412 32.4177 17.1153 34.1561 15.1911C34.5222 14.7987 34.8543 14.3597 34.9872 13.8557C35.1529 13.1829 34.8863 12.4362 34.3011 11.9835Z" fill="white"/>
<path fill-rule="evenodd" clip-rule="evenodd" d="M16.923 11.8727C16.4299 11.547 15.7899 11.4439 15.1886 11.5095C14.4611 11.6186 13.801 12.0785 13.5485 12.703C13.2538 13.4038 13.501 14.1989 14.0141 14.7655C16.0398 17.0326 18.0868 19.2842 20.1038 21.5566C20.212 21.4928 20.2735 21.3866 20.355 21.3007C21.1554 20.3661 21.9745 19.4434 22.7642 18.5022C21.1794 16.6604 19.6047 14.812 18.024 12.9672C17.686 12.5813 17.3813 12.1566 16.923 11.8727Z" fill="white"/>
<path fill-rule="evenodd" clip-rule="evenodd" d="M20.344 24.5675C20.2658 24.487 20.2157 24.3778 20.1055 24.3271C18.0591 26.6259 15.9947 28.9126 13.9403 31.2054C13.6016 31.5734 13.2749 31.97 13.1332 32.4364C12.9382 33.0794 13.1353 33.8089 13.6524 34.2926C14.5463 35.1401 16.27 35.1169 17.1091 34.2139C17.6957 33.5804 18.2342 32.9124 18.8027 32.2659C20.1529 30.6793 21.5352 29.113 22.8721 27.5181C22.0216 26.54 21.1878 25.5499 20.344 24.5675Z" fill="white"/>
<path d="M57.1527 33.6079V17.0169H60.8422V33.6079H57.1527ZM67.4222 33.6079V17.0169H71.1352V33.6079H67.4222ZM59.3617 26.6754V23.4794H68.6442V26.6754H59.3617ZM79.6297 33.8664C78.392 33.8664 77.2875 33.6157 76.3162 33.1144C75.3605 32.5974 74.6085 31.8846 74.0602 30.9759C73.5119 30.0672 73.2377 29.0411 73.2377 27.8974C73.2377 26.7537 73.504 25.7354 74.0367 24.8424C74.585 23.9337 75.3214 23.2209 76.2457 22.7039C77.17 22.1869 78.2119 21.9284 79.3712 21.9284C80.4992 21.9284 81.494 22.1712 82.3557 22.6569C83.2174 23.1426 83.891 23.8162 84.3767 24.6779C84.878 25.5396 85.1287 26.5266 85.1287 27.6389C85.1287 27.8426 85.113 28.0619 85.0817 28.2969C85.066 28.5162 85.0269 28.7747 84.9642 29.0724L75.1177 29.0959V26.6284L83.4367 26.6049L81.8857 27.6389C81.87 26.9809 81.7682 26.4404 81.5802 26.0174C81.3922 25.5787 81.1102 25.2497 80.7342 25.0304C80.3739 24.7954 79.9274 24.6779 79.3947 24.6779C78.8307 24.6779 78.3372 24.8111 77.9142 25.0774C77.5069 25.3281 77.1857 25.6884 76.9507 26.1584C76.7314 26.6284 76.6217 27.2002 76.6217 27.8739C76.6217 28.5476 76.7392 29.1272 76.9742 29.6129C77.2249 30.0829 77.5695 30.4511 78.0082 30.7174C78.4625 30.9681 78.9952 31.0934 79.6062 31.0934C80.1702 31.0934 80.6794 30.9994 81.1337 30.8114C81.588 30.6077 81.9875 30.3101 82.3322 29.9184L84.3062 31.8924C83.7422 32.5504 83.0607 33.0439 82.2617 33.3729C81.4627 33.7019 80.5854 33.8664 79.6297 33.8664ZM93.6394 33.6079L90.8899 29.1664L90.1144 28.6729L85.6259 22.1869H89.8324L92.3939 26.3464L93.1459 26.8164L97.7989 33.6079H93.6394ZM85.4144 33.6079L90.0909 26.9574L92.1354 29.2604L89.3389 33.6079H85.4144ZM93.1224 28.6494L91.0779 26.3464L93.6629 22.1869H97.5639L93.1224 28.6494ZM99.165 33.6079V16.5469H102.761V33.6079H99.165ZM110.063 33.8429C109.013 33.8429 108.073 33.5844 107.243 33.0674C106.428 32.5504 105.778 31.8454 105.292 30.9524C104.822 30.0594 104.587 29.0411 104.587 27.8974C104.587 26.7537 104.822 25.7354 105.292 24.8424C105.778 23.9494 106.428 23.2444 107.243 22.7274C108.073 22.2104 109.013 21.9519 110.063 21.9519C110.831 21.9519 111.52 22.1007 112.131 22.3984C112.758 22.6961 113.267 23.1112 113.658 23.6439C114.05 24.1609 114.269 24.7562 114.316 25.4299V30.3649C114.269 31.0386 114.05 31.6417 113.658 32.1744C113.282 32.6914 112.781 33.0987 112.154 33.3964C111.528 33.6941 110.831 33.8429 110.063 33.8429ZM110.791 30.5999C111.559 30.5999 112.178 30.3492 112.648 29.8479C113.118 29.3309 113.353 28.6807 113.353 27.8974C113.353 27.3647 113.243 26.8947 113.024 26.4874C112.82 26.0801 112.523 25.7667 112.131 25.5474C111.755 25.3124 111.316 25.1949 110.815 25.1949C110.314 25.1949 109.867 25.3124 109.475 25.5474C109.099 25.7667 108.794 26.0801 108.559 26.4874C108.34 26.8947 108.23 27.3647 108.23 27.8974C108.23 28.4144 108.34 28.8766 108.559 29.2839C108.778 29.6912 109.084 30.0124 109.475 30.2474C109.867 30.4824 110.306 30.5999 110.791 30.5999ZM113.212 33.6079V30.5294L113.752 27.7564L113.212 24.9834V22.1869H116.737V33.6079H113.212ZM125.849 33.8429C125.081 33.8429 124.376 33.6862 123.734 33.3729C123.091 33.0439 122.566 32.6131 122.159 32.0804C121.752 31.5321 121.517 30.9211 121.454 30.2474V25.4299C121.517 24.7562 121.752 24.1609 122.159 23.6439C122.566 23.1112 123.091 22.6961 123.734 22.3984C124.376 22.1007 125.081 21.9519 125.849 21.9519C126.93 21.9519 127.885 22.2104 128.716 22.7274C129.562 23.2444 130.22 23.9494 130.69 24.8424C131.175 25.7354 131.418 26.7537 131.418 27.8974C131.418 29.0411 131.175 30.0594 130.69 30.9524C130.22 31.8454 129.562 32.5504 128.716 33.0674C127.885 33.5844 126.93 33.8429 125.849 33.8429ZM125.214 30.5999C125.715 30.5999 126.154 30.4824 126.53 30.2474C126.922 30.0124 127.227 29.6912 127.447 29.2839C127.666 28.8766 127.776 28.4144 127.776 27.8974C127.776 27.3647 127.666 26.8947 127.447 26.4874C127.227 26.0801 126.922 25.7667 126.53 25.5474C126.154 25.3124 125.715 25.1949 125.214 25.1949C124.713 25.1949 124.266 25.3124 123.875 25.5474C123.483 25.7667 123.177 26.0801 122.958 26.4874C122.754 26.8947 122.653 27.3647 122.653 27.8974C122.653 28.4301 122.762 28.9001 122.982 29.3074C123.201 29.7147 123.499 30.0359 123.875 30.2709C124.266 30.4902 124.713 30.5999 125.214 30.5999ZM119.269 33.6079V16.5469H122.864V24.9834L122.277 27.7564L122.817 30.5294V33.6079H119.269Z" fill="white"/>
</svg>
